<svg xmlns="http://www.w3.org/2000/svg" xmlns:xlink="http://www.w3.org/1999/xlink" xmlns:lucid="lucid" width="1688" height="728"><g transform="translate(200 20)" lucid:page-tab-id="0_0"><path d="M-101.7 504.5h-76.6c-.9 0-1.7-.8-1.7-1.7v-5.1c0-18.2 12-33.4 29.5-37.7.5-.1.9 0 1.3.2 6 3.2 12.5 3.2 18.4 0 .4-.3.8-.3 1.2-.2a38.3 38.3 0 0 1 29.6 37.7v5.1c0 1-.8 1.7-1.7 1.7zm-74.9-3.4h73.2v-3.4a34.7 34.7 0 0 0-26.4-34.2c-3.3 1.6-6.4 2.4-10.2 2.4s-6.9-.7-10.2-2.4a34.7 34.7 0 0 0-26.4 34.2z" fill="#ed3e3e"/><path d="M-140 465.8a20.7 20.7 0 1 1 10.1-38.7 20.1 20.1 0 0 1 10.6 18.1 20 20 0 0 1-10.7 18 20 20 0 0 1-10 2.6zm0-37.8a16.8 16.8 0 0 0-15.4 9 17.2 17.2 0 0 0 6.9 23.3c5.4 2.9 11.4 2.9 16.8 0A17.2 17.2 0 0 0-140 428z" fill="#ed3e3e"/><use xlink:href="#a" transform="translate(-159 528)"/><path d="M-20 306.5h200v118c-33.4-19.7-54.2-19.7-66.8-19.7-20 0-46.6 19.7-66.6 19.7-12.4 0-33.4 0-66.6-19.7z" stroke="#000" stroke-width="2" fill="#fff"/><use xlink:href="#b" transform="translate(4 326)"/><use xlink:href="#c" transform="translate(15 326)"/><use xlink:href="#d" transform="translate(73.9 326)"/><use xlink:href="#e" transform="translate(4 347.5)"/><use xlink:href="#f" transform="translate(15 347.5)"/><use xlink:href="#g" transform="translate(106.9 347.5)"/><use xlink:href="#e" transform="translate(4 369.1)"/><use xlink:href="#h" transform="translate(15 369.1)"/><use xlink:href="#i" transform="translate(55.8 369.1)"/><use xlink:href="#e" transform="translate(4 390.7)"/><use xlink:href="#j" transform="translate(15 390.7)"/><use xlink:href="#k" transform="translate(49 390.7)"/><use xlink:href="#l" transform="translate(4 412.3)"/><path d="M607.4 520.1l46.1-25.6v-51.1l-46.1 25.5v51.2zM561.4 494.5l46 25.6v-51.2l-46-25.5v51zm91.8-51.1L607.4 418l-45.7 25.4 45.7 25.4 45.8-25.4z" fill="#fff"/><path d="M607.4 467.3l43.1-23.9-43 23.9zM564.4 443.4l43 23.9-43-24z" fill="#fff"/><path d="M653.4 441.8l-46-25.6-46 25.6-1.4.8v52.8l46 25.5 1.5.8 1.4-.8 46.1-25.5v-52.8zm-1.4 51.9l-43 24v-48l43-23.8zm-46 24l-43.2-24v-47.8l43.2 23.8zm-41.6-74.3l43-23.9 43.1 23.9-43.1 24-43-24z" fill="#444"/><path d="M607.6 496.5l24.8-13.7v-27.5L607.6 469v27.5zm-25.1-13.7l24.7 13.7v-27.4l-24.7-13.7v27.4zM632 455l-24.7-13.7-24.7 13.7 24.7 13.7 24.7-13.7z" fill="#f25f6d"/><path d="M607.4 467.3l22.2-12.3-22.2 12.3zM585.2 455l22.2 12.3-22.2-12.3z" fill="#fc585b"/><path d="M632.5 453.3l-25-13.9-25.2 14-1.5.8v29.5l25.1 14 1.5.8 1.5-.8 25.1-14v-29.6zm-1.4 28.8L609 494.4v-24.7l22.2-12.3zM606 494.4l-22.3-12.3v-24.7l22.3 12.3zM585.3 455l22.2-12.3 22.1 12.3-22.2 12.3-22.2-12.3z" fill="#fff"/><use xlink:href="#l" transform="translate(577 536.1)"/><path d="M-20 520h180v118c-30-19.7-48.8-19.7-60.1-19.7-18 0-42 19.7-60 19.7-11.1 0-30 0-59.9-19.7z" stroke="#000" stroke-width="2" fill="#fff"/><use xlink:href="#m" transform="translate(17 562.3)"/><use xlink:href="#n" transform="translate(74 562.3)"/><use xlink:href="#o" transform="translate(94 562.3)"/><use xlink:href="#p" transform="translate(25.5 583.9)"/><use xlink:href="#q" transform="translate(78.7 583.9)"/><path d="M-140 423.5v-58h100.5" stroke="#000" stroke-width="2" fill="none"/><path d="M-139 424.6l-.8-.1-1.2.1v-1.1h2z"/><path d="M-24.2 365.5l-14.3 4.6V361z" stroke="#000" stroke-width="2"/><path d="M182 365.5h197.5v36" stroke="#000" stroke-width="2" fill="none"/><path d="M182 366.5h-1v-2h1z"/><path d="M379.5 416.8l-4.6-14.3h9.2z" stroke="#000" stroke-width="2"/><path d="M980 538h120v120H980V538z" fill="#f25f6d"/><path d="M1057.6 636.4l-1-.3c-.4-.3-.6-.8-.6-1.3v-73.6c0-.6.3-1.1.8-1.4.4-.3 1-.3 1.6 0l20.8 10.1c.5.3.9.8.9 1.4V628c0 .8-.4 1.4-1.1 1.6l-20.8 7h-.6zm1.6-72.6v68.8l17.6-5.9v-54.4zm-36.8 72.6h-.5l-20.8-7c-.7-.1-1.1-.8-1.1-1.5v-56.6c0-.6.3-1.1.9-1.4l20.8-10.2c.5-.2 1.1-.2 1.6 0 .5.4.8 1 .8 1.5v73.6c0 .5-.3 1-.7 1.3-.3.2-.6.3-1 .3zm-19.2-9.6l17.6 5.8v-68.8l-17.6 8.6z" fill="#fff"/><path d="M1056 582h-4.8v-3.2h4.8zm-9.6 0h-4.8v-3.2h4.8zm-9.6 0h-4.8v-3.2h4.8zm-9.6 0h-4.8v-3.2h4.8zm28.8 35.2h-4.8V614h4.8zm-9.6 0h-4.8V614h4.8zm-9.6 0h-4.8V614h4.8zm-9.6 0h-4.8V614h4.8zm5.8-13.7l-6-5.1c-.7-.6-.8-1.6-.2-2.3l.2-.2 6-5.1 2 2.4-4.5 4 4.5 3.9zm14 0l-2-2.4 4.5-4-4.6-3.8 2.1-2.5 6 5c.7.7.8 1.7.2 2.4l-.2.1zM1035.3 606.9l6.3-18.8 3 1-6.3 18.8-3-1z" fill="#fff"/><use xlink:href="#r" transform="translate(952 681.4)"/><use xlink:href="#s" transform="translate(1023 681.4)"/><use xlink:href="#t" transform="translate(1057 681.4)"/><path d="M179.5 579h200v-40" stroke="#000" stroke-width="2" fill="none"/><path d="M164.2 579l14.3-4.7v9.3z" stroke="#000" stroke-width="2"/><path d="M380.5 539h-2v-1h2z"/><path d="M1451.5 504.5H1362c-1 0-2-.9-2-2V459h4v41.5h85.4v-57.2h-54.3v-4h56.4c1 0 2 .9 2 2v61.2c0 1-1 2-2 2z" fill="#ed3e3e"/><path d="M1406.7 480.4a2 2 0 0 1-1.2-.5l-24-20 2.5-3 22.7 19 43.5-36.2 2.6 3L1408 480c-.5.3-1 .5-1.4.5z" fill="#ed3e3e"/><path d="M1413.3 473.4l2.6-3 36.8 30.6-2.5 3-37-30.6zM1360.7 501l36.9-30.6 2.6 3-37 30.6-2.5-3zM1374.3 453c2 0 3.6-.3 5.5-1v3.4c-2 1-3.8 1.3-6 1.3-2.6 0-4.8-.5-7-1.8-2-1.2-3.4-2.8-4.4-5-1-2.5-1.6-5-1.5-7.7 0-3.7.7-6.9 2.3-10.2a16 16 0 0 1 6.1-6.8c2.6-1.7 5.3-2.5 8.4-2.4 2.5-.1 4.8.4 7 1.6 2 1.1 3.5 2.6 4.6 4.7 1 2.4 1.6 4.7 1.5 7.3a17 17 0 0 1-1.2 6.7c-.7 1.8-1.6 3.2-3.1 4.4a6.2 6.2 0 0 1-6.7 1c-.7-.4-1.2-.9-1.6-1.5-.7.7-1.4 1.2-2.2 1.6-.8.4-1.5.6-2.3.6-1.6 0-2.9-.6-3.7-1.8a9 9 0 0 1-1.3-5.3c0-2.1.3-4 1-6 .6-1.7 1.4-3 2.7-4.3.9-1 2-1.4 3.3-1.5 1.4 0 2.7.8 3.5 2l.4-1.4h3.7l-1.7 12.2v1c0 .4.1.8.4 1.2.2.2.5.4.8.4.9-.1 1.6-.6 2-1.4.7-1 1.2-2.1 1.5-3.4.4-1.5.5-2.8.5-4.4.2-2.8-.6-5.3-2.3-7.5a8.8 8.8 0 0 0-7-2.6c-2.4 0-4.4.7-6.3 2.1a13 13 0 0 0-4.3 5.7c-1.1 2.6-1.6 5-1.6 8a12 12 0 0 0 2.4 8c1.7 2 4 3 6.6 2.8zm1.2-7.4c.8 0 1.5-.4 2-1v-.7-1.4l1-7.9a3 3 0 0 0-1.7-.7c-1 0-1.7.7-2.4 2.2-.8 1.8-1 3.5-1 5.5.1 2.7.7 4 2 4z" fill="#ed3e3e"/><use xlink:href="#u" transform="translate(1364 528)"/><use xlink:href="#v" transform="translate(1405 528)"/><path d="M1440 318.5h-38.5V280h38.5zm-35.1-3.4h31.7v-31.7h-31.7zM1440 360h-38.5v-38.5h38.5zm-35.1-3.4h31.7v-31.7h-31.7zm-6.4-38.1H1360V280h38.5zm-35.1-3.4h31.7v-31.7h-31.7zm35.1 44.9H1360v-38.5h38.5zm-35.1-3.4h31.7v-31.7h-31.7z" fill="#ed3e3e"/><path d="M1420.8 312.1a12.9 12.9 0 1 1 12.8-12.9 13 13 0 0 1-12.8 13zm0-22.3z" fill="#ed3e3e"/><use xlink:href="#w" transform="translate(1334.1 383.4)"/><use xlink:href="#x" transform="translate(1431 383.4)"/><path d="M1017.8 217.8H1000V200h17.8zm-14.4-3.4h11v-11h-11zm14.4 24.1H1000v-17.8h17.8zm-14.4-3.4h11v-11h-11zm14.4 24.2H1000v-17.8h17.8zm-14.4-3.5h11V245h-11zm14.4 24.2H1000v-17.8h17.8zm-14.4-3.4h11v-11h-11zm76.6-58.8h-59.3V200h59.3zm-55.9-3.4h52.5v-11h-52.5zm55.9 24.1h-59.3v-17.8h59.3zm-55.9-3.4h52.5v-11h-52.5zm55.9 24.2h-59.3v-17.8h59.3zm-55.9-3.5h52.5V245h-52.5zM1080 280h-59.3v-17.8h59.3zm-55.9-3.4h52.5v-11h-52.5z" fill="#ed3e3e"/><use xlink:href="#w" transform="translate(970.1 303.4)"/><use xlink:href="#y" transform="translate(1067 303.4)"/><path d="M1064 406.8h-13c-.7 0-1.3-.4-1.5-1l-18.2-39h-7.3c-.9 0-1.7-.7-1.7-1.6V354c0-1 .8-1.7 1.7-1.7h16.2c.7 0 1.2.4 1.5 1l18 38.9h4.2c1 0 1.7.7 1.7 1.7v11.2c0 1-.8 1.7-1.7 1.7zm-12-3.5h10.2v-7.7h-3.5c-.6 0-1.2-.4-1.5-1l-18-39h-13.4v7.9h6.6c.7 0 1.3.3 1.6 1z" fill="#ed3e3e"/><path d="M1028.8 406.8H1015c-.9 0-1.7-.8-1.7-1.8 0-.2 0-.4.2-.7l14.4-30.2a1.7 1.7 0 0 1 3.1 0l7 14.2v1.5l-7.6 16c-.3.6-1 1-1.6 1zm-11.1-3.4h10l6.8-14.3-5-10.4z" fill="#ed3e3e"/><path d="M1040 422.7a40 40 0 1 1 0-80 40 40 0 0 1 0 80zm0-76.5a36.5 36.5 0 1 0-.1 73 36.5 36.5 0 0 0 .1-73z" fill="#ed3e3e"/><use xlink:href="#z" transform="translate(970.6 446.1)"/><use xlink:href="#A" transform="translate(1040.5 446.1)"/><path d="M801 480H656v-2h143v-42.6h2zm180.5-96.3H801v30.1h-2v-32h182.5zM656 480h-1v-2h1zm340.8-97.3l-14.3 4.7V378z"/><path d="M1000 382.7l-18.5 6v-12zm-16.5 3.3l10-3.3-10-3.2z"/><use xlink:href="#B" transform="translate(676.1 428.2)"/><use xlink:href="#C" transform="translate(696.1 428.2)"/><use xlink:href="#D" transform="translate(755 428.2)"/><use xlink:href="#E" transform="translate(785 428.2)"/><use xlink:href="#A" transform="translate(855 428.2)"/><path d="M1192.4 423.9l46.1-25.7v-51l-46.1 25.5v51.2zM1146.4 398.2l46 25.6v-51.1l-46-25.5v51zm91.8-51l-45.8-25.5-45.7 25.5 45.7 25.3 45.8-25.4z" fill="#fff"/><path d="M1192.4 371l43.1-23.9-43 24zM1149.4 347.1l43 24-43-24z" fill="#fff"/><path d="M1238.4 345.5l-46-25.5-46 25.5-1.4.9V399l46 25.5 1.5.9 1.4-.9 46.1-25.5v-52.7zm-1.4 52l-43 23.9v-48l43-23.8zm-46 23.9l-43.1-24v-47.8l43 23.9zm-41.6-74.3l43-23.8 43.1 23.8-43.1 24-43-24z" fill="#444"/><path d="M1192.6 400.3l24.8-13.8v-27.4l-24.8 13.7v27.5zm-25.1-13.8l24.7 13.8v-27.5l-24.7-13.7v27.4zm49.6-27.8l-24.7-13.7-24.7 13.7 24.7 13.8 24.7-13.8z" fill="#f25f6d"/><path d="M1192.4 371l22.2-12.2-22.2 12.3zm-22.2-12.3l22.2 12.4-22.2-12.4z" fill="#fc585b"/><path d="M1217.5 357l-25-13.8-25.2 13.9-1.5.8v29.6l25.1 14 1.5.8 1.5-.9 25.1-14V358zm-1.4 28.8l-22.2 12.4v-24.7l22.2-12.3zm-25.1 12.4l-22.3-12.4v-24.6l22.3 12.3zm-20.7-39.5l22.2-12.3 22.1 12.3-22.2 12.4-22.2-12.3z" fill="#fff"/><use xlink:href="#l" transform="translate(1162 439.9)"/><path d="M1081 382.7h45.5" stroke="#000" stroke-width="2" fill="none"/><path d="M1081 383.7h-1v-2h1z"/><path d="M1141.8 382.7l-14.3 4.7V378z" stroke="#000" stroke-width="2"/><path d="M1241 382.7h59V320h41.5" stroke="#000" stroke-width="2" fill="none"/><path d="M1241 383.7h-1v-2h1z"/><path d="M1356.8 320l-14.3 4.6v-9.2z" stroke="#000" stroke-width="2"/><path d="M1241 382.7h59v81h41.5" stroke="#000" stroke-width="2" fill="none"/><path d="M1241 383.7h-1v-2h1z"/><path d="M1356.8 463.6l-14.3 4.7V459z" stroke="#000" stroke-width="2"/><path d="M1040 537v-95.8" stroke="#000" stroke-width="2" fill="none"/><path d="M1041 538h-2v-1h2z"/><path d="M1040 426l4.6 14.2h-9.2z" stroke="#000" stroke-width="2"/><path d="M801 549.6h160.5v2H799V543h2zm0-28.1h-2V480H656v-2h145zM656 480h-1v-2h1zm320.8 70.6l-14.3 4.6V546z"/><path d="M980 550.6l-18.5 6v-12zm-16.5 3.2l10-3.2-10-3.3z"/><use xlink:href="#F" transform="translate(704.8 535.9)"/><use xlink:href="#C" transform="translate(724.8 535.9)"/><use xlink:href="#D" transform="translate(783.7 535.9)"/><use xlink:href="#G" transform="translate(813.7 535.9)"/><use xlink:href="#H" transform="translate(866.2 535.9)"/><path d="M-22 579h-118v-56" stroke="#000" stroke-width="2" fill="none"/><path d="M-21 580h-1v-2h1z"/><path d="M-140 507.7l4.6 14.3h-9.2z" stroke="#000" stroke-width="2"/><path d="M801 480H656v-2h143v-42.6h2zm0-66.2h-2V297.5h2zM981.5 241H801v34.9h-2V239h182.5zM656 480h-1v-2h1zm340.8-240l-14.3 4.6v-9.2z"/><path d="M1000 240l-18.5 6v-12zm-16.5 3.3l10-3.3-10-3.3z"/><use xlink:href="#I" transform="translate(673.2 290.3)"/><use xlink:href="#C" transform="translate(693.2 290.3)"/><use xlink:href="#D" transform="translate(752 290.3)"/><use xlink:href="#J" transform="translate(782 290.3)"/><use xlink:href="#K" transform="translate(854 290.3)"/><use xlink:href="#y" transform="translate(884 290.3)"/><path d="M1400 279v-39h-301.5" stroke="#000" stroke-width="2" fill="none"/><path d="M1401 283h-2v-4h2z"/><path d="M1083.2 240l14.3-4.6v9.2z" stroke="#000" stroke-width="2"/><path d="M980 0h120v120H980V0z" fill="#f25f6d"/><path d="M1040 20a40 40 0 0 0-32.5 63.3l2.6-1.9a36.8 36.8 0 1 1 59.8-42.9 35.1 35.1 0 0 1 6.9 21.5 35 35 0 0 1-6.9 21.4l2.6 2A40 40 0 0 0 1040 20z" fill="#fff"/><path d="M1060.8 83.4v-5.8c0-.9-.7-1.6-1.6-1.6h-17.6v-9.6h17.6c.9 0 1.6-.8 1.6-1.6v-24c0-.9-.7-1.6-1.6-1.6h-38.4c-.9 0-1.6.7-1.6 1.6v24c0 .8.7 1.6 1.6 1.6h17.6V76h-17.6c-.9 0-1.6.7-1.6 1.6v5.8a7 7 0 0 0-5.4 5.4 7.2 7.2 0 1 0 14 3.2 7.2 7.2 0 0 0-5.4-8.6v-4.2h16v6.6a7.2 7.2 0 1 0 8.6 8.6 7.2 7.2 0 0 0-5.4-8.6v-6.6h16v4.2a7 7 0 0 0-5.4 5.4 7.2 7.2 0 0 0 5.4 8.7 7.2 7.2 0 0 0 3.2-14zm-14-30.5l10.8-8.7v17.3zm-6.8 1.4l-14.7-11.9h29.4zm-7-1.5l-10.6 8.7V44.2zm2.7 2l3.3 2.8c.6.5 1.4.5 2 0l3.2-2.7 10.3 8.3h-29.2zm-11 35.6a4 4 0 0 1-4 4 4 4 0 0 1 0-8 4 4 0 0 1 4 4zm19.3 2.4a4 4 0 0 1-4 4 4 4 0 0 1-4-4 4 4 0 0 1 4-4 4 4 0 0 1 4 4zm15.2 1.6a4 4 0 0 1 0-8 4 4 0 0 1 0 8z" fill="#fff"/><use xlink:href="#r" transform="translate(952.2 143.4)"/><use xlink:href="#L" transform="translate(1023.1 143.4)"/><use xlink:href="#M" transform="translate(1083 143.4)"/><use xlink:href="#N" transform="translate(983.6 165)"/><use xlink:href="#O" transform="translate(1048.5 165)"/><path d="M801 480H656v-2h143v-42.6h2zm0-66.2h-2V297.5h2zm0-138h-2V172.8h2zM961.5 61H801v90h-2V59h162.5zM656 480h-1v-2h1zM976.8 60l-14.3 4.6v-9.2z"/><path d="M980 60l-18.5 6V54zm-16.5 3.3l10-3.3-10-3.3z"/><use xlink:href="#P" transform="translate(702.3 165.5)"/><use xlink:href="#Q" transform="translate(722.3 165.5)"/><use xlink:href="#R" transform="translate(790.9 165.5)"/><use xlink:href="#S" transform="translate(838.7 165.5)"/><use xlink:href="#T" transform="translate(861.7 165.5)"/><path d="M432.2 504.4H326.7a7.8 7.8 0 0 1-7.7-7.7v-69c0-4.2 3.5-7.7 7.7-7.7h105.5c4.2 0 7.7 3.5 7.7 7.7v69c0 4.2-3.4 7.7-7.6 7.7h-.1zm-105.3-79.3a2.6 2.6 0 0 0-2.7 2.6v69c0 1.4 1.2 2.5 2.7 2.5h105.4c1.4 0 2.5-1.1 2.5-2.6v-69c0-1.4-1-2.5-2.5-2.5zm104 112.9H328c-5 0-9-4-9-9v-11c0-5 4-9 9-9.1h103c4.9 0 9 4 9 9V529c0 5-4.1 9-9 9zM328 514c-2 0-3.8 1.8-3.8 3.9V529c0 2.1 1.8 3.8 3.8 3.9h103c2.1 0 3.8-1.8 3.8-4v-11c0-2.1-1.7-3.9-3.9-3.9z" fill="#ed3e3e"/><path d="M427.8 494.8h-96.6a2.6 2.6 0 0 1-2.5-2.6v-60.1c0-1.4 1.1-2.6 2.5-2.6h96.6c1.4 0 2.5 1.2 2.5 2.6v60.1c0 1.4-1.1 2.6-2.5 2.6zm-94-5.2h91.3v-54.9H334zm65 28.9h29c1.6 0 2.5.9 2.5 2.6v4.8c0 1.7-.8 2.6-2.5 2.6h-29c-1.7 0-2.6-.9-2.6-2.6V521c0-1.8.9-2.6 2.6-2.6z" fill="#ed3e3e"/><g><use xlink:href="#U" transform="translate(365.5 561.4)"/></g><path d="M440.9 479h100.6" stroke="#000" stroke-width="2" fill="none"/><path d="M441 480h-1.1v-2h1z"/><path d="M556.8 479l-14.3 4.6v-9.3z" stroke="#000" stroke-width="2"/><path d="M961.5 597v2h-303v-2zM162 595.5v-2h320.4v2zm814.8 2.5l-14.3 4.6v-9.3z"/><path d="M980 598l-18.5 6v-12zm-16.5 3.2l10-3.2-10-3.3zM162 595.5h-1v-2h1z"/><g><use xlink:href="#V" transform="translate(482.4 599.8)"/><use xlink:href="#W" transform="translate(559.6 599.8)"/><use xlink:href="#X" transform="translate(609.6 599.8)"/></g><defs><path d="M232-93c-1 65-40 97-104 97C67 4 28-28 28-90v-158h33c8 89-33 224 67 224 102 0 64-133 71-224h33v155" id="Y"/><path d="M135-143c-3-34-86-38-87 0 15 53 115 12 119 90S17 21 10-45l28-5c4 36 97 45 98 0-10-56-113-15-118-90-4-57 82-63 122-42 12 7 21 19 24 35" id="Z"/><path d="M100-194c63 0 86 42 84 106H49c0 40 14 67 53 68 26 1 43-12 49-29l28 8c-11 28-37 45-77 45C44 4 14-33 15-96c1-61 26-98 85-98zm52 81c6-60-76-77-97-28-3 7-6 17-6 28h103" id="aa"/><path d="M114-163C36-179 61-72 57 0H25l-1-190h30c1 12-1 29 2 39 6-27 23-49 58-41v29" id="ab"/><g id="a"><use transform="scale(.05)" xlink:href="#Y"/><use transform="translate(13) scale(.05)" xlink:href="#Z"/><use transform="translate(22) scale(.05)" xlink:href="#aa"/><use transform="translate(32) scale(.05)" xlink:href="#ab"/></g><path d="M16-82v-28h88v28H16" id="ac"/><use transform="scale(.05)" xlink:href="#ac" id="b"/><path d="M100-194c62-1 85 37 85 99 1 63-27 99-86 99S16-35 15-95c0-66 28-99 85-99zM99-20c44 1 53-31 53-75 0-43-8-75-51-75s-53 32-53 75 10 74 51 75" id="ad"/><path d="M84 4C-5 8 30-112 23-190h32v120c0 31 7 50 39 49 72-2 45-101 50-169h31l1 190h-30c-1-10 1-25-2-33-11 22-28 36-60 37" id="ae"/><path d="M96-169c-40 0-48 33-48 73s9 75 48 75c24 0 41-14 43-38l32 2c-6 37-31 61-74 61-59 0-76-41-82-99-10-93 101-131 147-64 4 7 5 14 7 22l-32 3c-4-21-16-35-41-35" id="af"/><g id="c"><use transform="scale(.05)" xlink:href="#Z"/><use transform="translate(9) scale(.05)" xlink:href="#ad"/><use transform="translate(19) scale(.05)" xlink:href="#ae"/><use transform="translate(29) scale(.05)" xlink:href="#ab"/><use transform="translate(35) scale(.05)" xlink:href="#af"/><use transform="translate(44) scale(.05)" xlink:href="#aa"/></g><path d="M210-169c-67 3-38 105-44 169h-31v-121c0-29-5-50-35-48C34-165 62-65 56 0H25l-1-190h30c1 10-1 24 2 32 10-44 99-50 107 0 11-21 27-35 58-36 85-2 47 119 55 194h-31v-121c0-29-5-49-35-48" id="ag"/><path d="M141-36C126-15 110 5 73 4 37 3 15-17 15-53c-1-64 63-63 125-63 3-35-9-54-41-54-24 1-41 7-42 31l-33-3c5-37 33-52 76-52 45 0 72 20 72 64v82c-1 20 7 32 28 27v20c-31 9-61-2-59-35zM48-53c0 20 12 33 32 33 41-3 63-29 60-74-43 2-92-5-92 41" id="ah"/><path d="M24-231v-30h32v30H24zM24 0v-190h32V0H24" id="ai"/><path d="M24 0v-261h32V0H24" id="aj"/><g id="d"><use transform="scale(.05)" xlink:href="#aa"/><use transform="translate(10) scale(.05)" xlink:href="#ag"/><use transform="translate(25) scale(.05)" xlink:href="#ah"/><use transform="translate(35) scale(.05)" xlink:href="#ai"/><use transform="translate(38.9) scale(.05)" xlink:href="#aj"/></g><use transform="scale(.05)" xlink:href="#ac" id="e"/><path d="M85-194c31 0 48 13 60 33l-1-100h32l1 261h-30c-2-10 0-23-3-31C134-8 116 4 85 4 32 4 16-35 15-94c0-66 23-100 70-100zm9 24c-40 0-46 34-46 75 0 40 6 74 45 74 42 0 51-32 51-76 0-42-9-74-50-73" id="ak"/><path d="M59-47c-2 24 18 29 38 22v24C64 9 27 4 27-40v-127H5v-23h24l9-43h21v43h35v23H59v120" id="al"/><path d="M117-194c89-4 53 116 60 194h-32v-121c0-31-8-49-39-48C34-167 62-67 57 0H25l-1-190h30c1 10-1 24 2 32 11-22 29-35 61-36" id="am"/><g id="f"><use transform="scale(.05)" xlink:href="#ak"/><use transform="translate(10) scale(.05)" xlink:href="#aa"/><use transform="translate(20) scale(.05)" xlink:href="#Z"/><use transform="translate(29) scale(.05)" xlink:href="#al"/><use transform="translate(34) scale(.05)" xlink:href="#ai"/><use transform="translate(38) scale(.05)" xlink:href="#am"/><use transform="translate(48) scale(.05)" xlink:href="#ah"/><use transform="translate(58) scale(.05)" xlink:href="#al"/><use transform="translate(63) scale(.05)" xlink:href="#ai"/><use transform="translate(66.9) scale(.05)" xlink:href="#ad"/><use transform="translate(76.9) scale(.05)" xlink:href="#am"/></g><g id="g"><use transform="scale(.05)" xlink:href="#aa"/><use transform="translate(10) scale(.05)" xlink:href="#ag"/><use transform="translate(25) scale(.05)" xlink:href="#ah"/><use transform="translate(35) scale(.05)" xlink:href="#ai"/><use transform="translate(38.9) scale(.05)" xlink:href="#aj"/><use transform="translate(42.9) scale(.05)" xlink:href="#Z"/></g><path d="M101-234c-31-9-42 10-38 44h38v23H63V0H32v-167H5v-23h27c-7-52 17-82 69-68v24" id="an"/><g id="h"><use transform="scale(.05)" xlink:href="#an"/><use transform="translate(5) scale(.05)" xlink:href="#ad"/><use transform="translate(15) scale(.05)" xlink:href="#ab"/><use transform="translate(21) scale(.05)" xlink:href="#ag"/></g><g id="i"><use transform="scale(.05)" xlink:href="#an"/><use transform="translate(5) scale(.05)" xlink:href="#ai"/><use transform="translate(9) scale(.05)" xlink:href="#aa"/><use transform="translate(19) scale(.05)" xlink:href="#aj"/><use transform="translate(22.9) scale(.05)" xlink:href="#ak"/><use transform="translate(32.9) scale(.05)" xlink:href="#Z"/></g><path d="M108 0H70L1-190h34L89-25l56-165h34" id="ao"/><g id="j"><use transform="scale(.05)" xlink:href="#aa"/><use transform="translate(10) scale(.05)" xlink:href="#am"/><use transform="translate(20) scale(.05)" xlink:href="#ao"/></g><g id="k"><use transform="scale(.05)" xlink:href="#ao"/><use transform="translate(9) scale(.05)" xlink:href="#ah"/><use transform="translate(19) scale(.05)" xlink:href="#ab"/><use transform="translate(25) scale(.05)" xlink:href="#Z"/></g><path d="M190 0L58-211 59 0H30v-248h39L202-35l-2-213h31V0h-41" id="ap"/><path d="M33 0v-38h34V0H33" id="aq"/><path d="M24-231v-30h32v30H24zM-9 49c24 4 33-6 33-30v-209h32V24c2 40-23 58-65 49V49" id="ar"/><g id="l"><use transform="scale(.05)" xlink:href="#ap"/><use transform="translate(13) scale(.05)" xlink:href="#ad"/><use transform="translate(23) scale(.05)" xlink:href="#ak"/><use transform="translate(33) scale(.05)" xlink:href="#aa"/><use transform="translate(43) scale(.05)" xlink:href="#aq"/><use transform="translate(48) scale(.05)" xlink:href="#ar"/><use transform="translate(51.9) scale(.05)" xlink:href="#Z"/></g><path d="M233-177c-1 41-23 64-60 70L243 0h-38l-65-103H63V0H30v-248c88 3 205-21 203 71zM63-129c60-2 137 13 137-47 0-61-80-42-137-45v92" id="as"/><path d="M179-190L93 31C79 59 56 82 12 73V49c39 6 53-20 64-50L1-190h34L92-34l54-156h33" id="at"/><g id="m"><use transform="scale(.05)" xlink:href="#as"/><use transform="translate(13) scale(.05)" xlink:href="#aa"/><use transform="translate(23) scale(.05)" xlink:href="#ah"/><use transform="translate(33) scale(.05)" xlink:href="#ak"/><use transform="translate(43) scale(.05)" xlink:href="#at"/></g><g id="n"><use transform="scale(.05)" xlink:href="#al"/><use transform="translate(5) scale(.05)" xlink:href="#ad"/></g><g id="o"><use transform="scale(.05)" xlink:href="#ae"/><use transform="translate(10) scale(.05)" xlink:href="#Z"/><use transform="translate(19) scale(.05)" xlink:href="#aa"/></g><path d="M197 0v-115H63V0H30v-248h33v105h134v-105h34V0h-34" id="au"/><path d="M127-220V0H93v-220H8v-28h204v28h-85" id="av"/><path d="M240 0l2-218c-23 76-54 145-80 218h-23L58-218 59 0H30v-248h44l77 211c21-75 51-140 76-211h43V0h-30" id="aw"/><path d="M30 0v-248h33v221h125V0H30" id="ax"/><g id="p"><use transform="scale(.05)" xlink:href="#au"/><use transform="translate(13) scale(.05)" xlink:href="#av"/><use transform="translate(23.9) scale(.05)" xlink:href="#aw"/><use transform="translate(38.9) scale(.05)" xlink:href="#ax"/></g><g id="q"><use transform="scale(.05)" xlink:href="#an"/><use transform="translate(5) scale(.05)" xlink:href="#ad"/><use transform="translate(15) scale(.05)" xlink:href="#ab"/><use transform="translate(21) scale(.05)" xlink:href="#ag"/></g><path d="M205 0l-28-72H64L36 0H1l101-248h38L239 0h-34zm-38-99l-47-123c-12 45-31 82-46 123h93" id="ay"/><path d="M9 0v-24l116-142H16v-24h144v24L44-24h123V0H9" id="az"/><g id="r"><use transform="scale(.05)" xlink:href="#ay"/><use transform="translate(12) scale(.05)" xlink:href="#ag"/><use transform="translate(27) scale(.05)" xlink:href="#ah"/><use transform="translate(37) scale(.05)" xlink:href="#az"/><use transform="translate(46) scale(.05)" xlink:href="#ad"/><use transform="translate(56) scale(.05)" xlink:href="#am"/></g><path d="M30-248c87 1 191-15 191 75 0 78-77 80-158 76V0H30v-248zm33 125c57 0 124 11 124-50 0-59-68-47-124-48v98" id="aA"/><path d="M33 0v-248h34V0H33" id="aB"/><g id="s"><use transform="scale(.05)" xlink:href="#ay"/><use transform="translate(12) scale(.05)" xlink:href="#aA"/><use transform="translate(24) scale(.05)" xlink:href="#aB"/></g><path d="M143 4C61 4 22-44 18-125c-5-107 100-154 193-111 17 8 29 25 37 43l-32 9c-13-25-37-40-76-40-61 0-88 39-88 99 0 61 29 100 91 101 35 0 62-11 79-27v-45h-74v-28h105v86C228-13 192 4 143 4" id="aC"/><path d="M206 0h-36l-40-164L89 0H53L-1-190h32L70-26l43-164h34l41 164 42-164h31" id="aD"/><g id="t"><use transform="scale(.05)" xlink:href="#aC"/><use transform="translate(14) scale(.05)" xlink:href="#ah"/><use transform="translate(24) scale(.05)" xlink:href="#al"/><use transform="translate(29) scale(.05)" xlink:href="#aa"/><use transform="translate(39) scale(.05)" xlink:href="#aD"/><use transform="translate(52) scale(.05)" xlink:href="#ah"/><use transform="translate(62) scale(.05)" xlink:href="#at"/></g><path d="M185-189c-5-48-123-54-124 2 14 75 158 14 163 119 3 78-121 87-175 55-17-10-28-26-33-46l33-7c5 56 141 63 141-1 0-78-155-14-162-118-5-82 145-84 179-34 5 7 8 16 11 25" id="aE"/><path d="M30 0v-248h187v28H63v79h144v27H63v87h162V0H30" id="aF"/><g id="u"><use transform="scale(.05)" xlink:href="#aE"/><use transform="translate(12) scale(.05)" xlink:href="#aF"/><use transform="translate(24) scale(.05)" xlink:href="#aE"/></g><g id="v"><use transform="scale(.05)" xlink:href="#aF"/><use transform="translate(12) scale(.05)" xlink:href="#ag"/><use transform="translate(27) scale(.05)" xlink:href="#ah"/><use transform="translate(37) scale(.05)" xlink:href="#ai"/><use transform="translate(40.9) scale(.05)" xlink:href="#aj"/></g><path d="M30-248c118-7 216 8 213 122C240-48 200 0 122 0H30v-248zM63-27c89 8 146-16 146-99s-60-101-146-95v194" id="aG"/><path d="M160-131c35 5 61 23 61 61C221 17 115-2 30 0v-248c76 3 177-17 177 60 0 33-19 50-47 57zm-97-11c50-1 110 9 110-42 0-47-63-36-110-37v79zm0 115c55-2 124 14 124-45 0-56-70-42-124-44v89" id="aH"/><g id="w"><use transform="scale(.05)" xlink:href="#aG"/><use transform="translate(13) scale(.05)" xlink:href="#at"/><use transform="translate(22) scale(.05)" xlink:href="#am"/><use transform="translate(32) scale(.05)" xlink:href="#ah"/><use transform="translate(42) scale(.05)" xlink:href="#ag"/><use transform="translate(56.9) scale(.05)" xlink:href="#ad"/><use transform="translate(66.9) scale(.05)" xlink:href="#aG"/><use transform="translate(79.9) scale(.05)" xlink:href="#aH"/></g><g id="x"><use transform="scale(.05)" xlink:href="#aB"/><use transform="translate(5) scale(.05)" xlink:href="#al"/><use transform="translate(10) scale(.05)" xlink:href="#aa"/><use transform="translate(20) scale(.05)" xlink:href="#ag"/></g><path d="M115-194c53 0 69 39 70 98 0 66-23 100-70 100C84 3 66-7 56-30L54 0H23l1-261h32v101c10-23 28-34 59-34zm-8 174c40 0 45-34 45-75 0-40-5-75-45-74-42 0-51 32-51 76 0 43 10 73 51 73" id="aI"/><g id="y"><use transform="scale(.05)" xlink:href="#av"/><use transform="translate(9) scale(.05)" xlink:href="#ah"/><use transform="translate(19) scale(.05)" xlink:href="#aI"/><use transform="translate(29) scale(.05)" xlink:href="#aj"/><use transform="translate(32.9) scale(.05)" xlink:href="#aa"/></g><g id="z"><use transform="scale(.05)" xlink:href="#ax"/><use transform="translate(10) scale(.05)" xlink:href="#ah"/><use transform="translate(20) scale(.05)" xlink:href="#ag"/><use transform="translate(35) scale(.05)" xlink:href="#aI"/><use transform="translate(45) scale(.05)" xlink:href="#ak"/><use transform="translate(55) scale(.05)" xlink:href="#ah"/></g><path d="M63-220v92h138v28H63V0H30v-248h175v28H63" id="aJ"/><g id="A"><use transform="scale(.05)" xlink:href="#aJ"/><use transform="translate(11) scale(.05)" xlink:href="#ae"/><use transform="translate(21) scale(.05)" xlink:href="#am"/><use transform="translate(31) scale(.05)" xlink:href="#af"/><use transform="translate(40) scale(.05)" xlink:href="#al"/><use transform="translate(45) scale(.05)" xlink:href="#ai"/><use transform="translate(48.9) scale(.05)" xlink:href="#ad"/><use transform="translate(58.9) scale(.05)" xlink:href="#am"/></g><path d="M126-127c33 6 58 20 58 59 0 88-139 92-164 29-3-8-5-16-6-25l32-3c6 27 21 44 54 44 32 0 52-15 52-46 0-38-36-46-79-43v-28c39 1 72-4 72-42 0-27-17-43-46-43-28 0-47 15-49 41l-32-3c6-42 35-63 81-64 48-1 79 21 79 65 0 36-21 52-52 59" id="aK"/><g id="B"><use transform="scale(.05)" xlink:href="#aK"/><use transform="translate(10) scale(.05)" xlink:href="#aq"/></g><path d="M212-179c-10-28-35-45-73-45-59 0-87 40-87 99 0 60 29 101 89 101 43 0 62-24 78-52l27 14C228-24 195 4 139 4 59 4 22-46 18-125c-6-104 99-153 187-111 19 9 31 26 39 46" id="aL"/><g id="C"><use transform="scale(.05)" xlink:href="#aL"/><use transform="translate(13) scale(.05)" xlink:href="#ab"/><use transform="translate(18.9) scale(.05)" xlink:href="#aa"/><use transform="translate(28.9) scale(.05)" xlink:href="#ah"/><use transform="translate(38.9) scale(.05)" xlink:href="#al"/><use transform="translate(43.9) scale(.05)" xlink:href="#aa"/></g><path d="M106-169C34-169 62-67 57 0H25v-261h32l-1 103c12-21 28-36 61-36 89 0 53 116 60 194h-32v-121c2-32-8-49-39-48" id="aM"/><g id="D"><use transform="scale(.05)" xlink:href="#al"/><use transform="translate(5) scale(.05)" xlink:href="#aM"/><use transform="translate(15) scale(.05)" xlink:href="#aa"/></g><g id="E"><use transform="scale(.05)" xlink:href="#ax"/><use transform="translate(10) scale(.05)" xlink:href="#ah"/><use transform="translate(20) scale(.05)" xlink:href="#ag"/><use transform="translate(35) scale(.05)" xlink:href="#aI"/><use transform="translate(45) scale(.05)" xlink:href="#ak"/><use transform="translate(55) scale(.05)" xlink:href="#ah"/></g><path d="M155-56V0h-30v-56H8v-25l114-167h33v167h35v25h-35zm-30-156c-27 46-58 90-88 131h88v-131" id="aN"/><g id="F"><use transform="scale(.05)" xlink:href="#aN"/><use transform="translate(10) scale(.05)" xlink:href="#aq"/></g><g id="G"><use transform="scale(.05)" xlink:href="#as"/><use transform="translate(13) scale(.05)" xlink:href="#aF"/><use transform="translate(25) scale(.05)" xlink:href="#aE"/><use transform="translate(37) scale(.05)" xlink:href="#av"/></g><g id="H"><use transform="scale(.05)" xlink:href="#ay"/><use transform="translate(12) scale(.05)" xlink:href="#aA"/><use transform="translate(24) scale(.05)" xlink:href="#aB"/></g><path d="M101-251c82-7 93 87 43 132L82-64C71-53 59-42 53-27h129V0H18c2-99 128-94 128-182 0-28-16-43-45-43s-46 15-49 41l-32-3c6-41 34-60 81-64" id="aO"/><g id="I"><use transform="scale(.05)" xlink:href="#aO"/><use transform="translate(10) scale(.05)" xlink:href="#aq"/></g><g id="J"><use transform="scale(.05)" xlink:href="#aG"/><use transform="translate(13) scale(.05)" xlink:href="#at"/><use transform="translate(22) scale(.05)" xlink:href="#am"/><use transform="translate(32) scale(.05)" xlink:href="#ah"/><use transform="translate(42) scale(.05)" xlink:href="#ag"/><use transform="translate(56.9) scale(.05)" xlink:href="#ad"/></g><g id="K"><use transform="scale(.05)" xlink:href="#aG"/><use transform="translate(13) scale(.05)" xlink:href="#aH"/></g><path d="M115-194c55 1 70 41 70 98S169 2 115 4C84 4 66-9 55-30l1 105H24l-1-265h31l2 30c10-21 28-34 59-34zm-8 174c40 0 45-34 45-75s-6-73-45-74c-42 0-51 32-51 76 0 43 10 73 51 73" id="aP"/><g id="L"><use transform="scale(.05)" xlink:href="#aE"/><use transform="translate(12) scale(.05)" xlink:href="#ai"/><use transform="translate(16) scale(.05)" xlink:href="#ag"/><use transform="translate(30.9) scale(.05)" xlink:href="#aP"/><use transform="translate(40.9) scale(.05)" xlink:href="#aj"/><use transform="translate(44.9) scale(.05)" xlink:href="#aa"/></g><g id="M"><use transform="scale(.05)" xlink:href="#aF"/><use transform="translate(12) scale(.05)" xlink:href="#ag"/><use transform="translate(27) scale(.05)" xlink:href="#ah"/><use transform="translate(37) scale(.05)" xlink:href="#ai"/><use transform="translate(40.9) scale(.05)" xlink:href="#aj"/></g><g id="N"><use transform="scale(.05)" xlink:href="#aE"/><use transform="translate(12) scale(.05)" xlink:href="#aa"/><use transform="translate(22) scale(.05)" xlink:href="#ab"/><use transform="translate(28) scale(.05)" xlink:href="#ao"/><use transform="translate(37) scale(.05)" xlink:href="#ai"/><use transform="translate(40.9) scale(.05)" xlink:href="#af"/><use transform="translate(49.9) scale(.05)" xlink:href="#aa"/></g><path d="M87 75C49 33 22-17 22-94c0-76 28-126 65-167h31c-38 41-64 92-64 168S80 34 118 75H87" id="aQ"/><path d="M33-261c38 41 65 92 65 168S71 34 33 75H2C39 34 66-17 66-93S39-220 2-261h31" id="aR"/><g id="O"><use transform="scale(.05)" xlink:href="#aQ"/><use transform="translate(6) scale(.05)" xlink:href="#aE"/><use transform="translate(18) scale(.05)" xlink:href="#aF"/><use transform="translate(30) scale(.05)" xlink:href="#aE"/><use transform="translate(42) scale(.05)" xlink:href="#aR"/></g><path d="M27 0v-27h64v-190l-56 39v-29l58-41h29v221h61V0H27" id="aS"/><g id="P"><use transform="scale(.05)" xlink:href="#aS"/><use transform="translate(10) scale(.05)" xlink:href="#aq"/></g><path d="M137 0h-34L2-248h35l83 218 83-218h36" id="aT"/><g id="Q"><use transform="scale(.05)" xlink:href="#aT"/><use transform="translate(10.7) scale(.05)" xlink:href="#ah"/><use transform="translate(20.6) scale(.05)" xlink:href="#aj"/><use transform="translate(24.6) scale(.05)" xlink:href="#ai"/><use transform="translate(28.5) scale(.05)" xlink:href="#ak"/><use transform="translate(38.5) scale(.05)" xlink:href="#ah"/><use transform="translate(48.5) scale(.05)" xlink:href="#al"/><use transform="translate(53.5) scale(.05)" xlink:href="#aa"/></g><g id="R"><use transform="scale(.05)" xlink:href="#aa"/><use transform="translate(10) scale(.05)" xlink:href="#ag"/><use transform="translate(25) scale(.05)" xlink:href="#ah"/><use transform="translate(35) scale(.05)" xlink:href="#ai"/><use transform="translate(38.9) scale(.05)" xlink:href="#aj"/></g><path d="M0 4l72-265h28L28 4H0" id="aU"/><g id="S"><use transform="scale(.05)" xlink:href="#aD"/><use transform="translate(13) scale(.05)" xlink:href="#aU"/></g><g id="T"><use transform="scale(.05)" xlink:href="#aE"/><use transform="translate(12) scale(.05)" xlink:href="#aF"/><use transform="translate(24) scale(.05)" xlink:href="#aE"/></g><g id="U"><use transform="scale(.05)" xlink:href="#aL"/><use transform="translate(13) scale(.05)" xlink:href="#ax"/><use transform="translate(23) scale(.05)" xlink:href="#aB"/></g><path d="M153-248C145-148 188 4 80 4 36 3 13-21 6-62l32-5c4 25 16 42 43 43 27 0 39-20 39-49v-147H72v-28h81" id="aV"/><path d="M140-251c81 0 123 46 123 126C263-53 228-8 163 1c7 30 30 48 69 40v23c-55 16-95-15-103-61C56-3 17-48 17-125c0-80 42-126 123-126zm0 227c63 0 89-41 89-101s-29-99-89-99c-61 0-89 39-89 99S79-25 140-24" id="aW"/><path d="M137-103V0h-34v-103L8-248h37l75 118 75-118h37" id="aX"/><g id="V"><use transform="scale(.05)" xlink:href="#aV"/><use transform="translate(9) scale(.05)" xlink:href="#aW"/><use transform="translate(23) scale(.05)" xlink:href="#Y"/><use transform="translate(36) scale(.05)" xlink:href="#aF"/><use transform="translate(48) scale(.05)" xlink:href="#as"/><use transform="translate(60.6) scale(.05)" xlink:href="#aX"/></g><path d="M195 0l-74-108L45 0H8l94-129-87-119h37l69 98 67-98h37l-84 118L233 0h-38" id="aY"/><g id="W"><use transform="scale(.05)" xlink:href="#ay"/><use transform="translate(12) scale(.05)" xlink:href="#aV"/><use transform="translate(21) scale(.05)" xlink:href="#ay"/><use transform="translate(33) scale(.05)" xlink:href="#aY"/></g><path d="M140-251c81 0 123 46 123 126C263-46 219 4 140 4 59 4 17-45 17-125s42-126 123-126zm0 227c63 0 89-41 89-101s-29-99-89-99c-61 0-89 39-89 99S79-25 140-24" id="aZ"/><g id="X"><use transform="scale(.05)" xlink:href="#aA"/><use transform="translate(12) scale(.05)" xlink:href="#aZ"/><use transform="translate(26) scale(.05)" xlink:href="#aE"/><use transform="translate(38) scale(.05)" xlink:href="#av"/></g></defs></g></svg>